<svg xmlns="http://www.w3.org/2000/svg" viewBox="0 0 1366 633" preserveAspectRatio="xMidYMid" width="1366" height="633" style="shape-rendering: auto; display: block; background: rgb(238, 247, 247);" xmlns:xlink="http://www.w3.org/1999/xlink"><g><path stroke-width="0" fill="#dfe8e8" d="M-100 379.61C-74.5 377.75 -74.16 377.8 -49.48 377.8S-23.11 374.24 1.03 374.24S27.72 373.47 51.55 373.47S77.6 381.63 102.06 381.63S127.92 370.14 152.58 370.14S178.03 375.59 203.1 375.59S228.95 379.14 253.61 379.14S280.11 369.08 304.13 369.08S330.66 378.16 354.65 378.16S381.44 372.89 405.16 372.89S431.25 371.63 455.68 371.63S481.6 368.05 506.19 368.05S531.68 371.8 556.71 371.8S582.38 375.58 607.23 375.58S633.68 374.77 657.74 374.77S684.5 381.91 708.26 381.91S733.93 382.83 758.77 382.83S784.38 380.32 809.29 380.32S835.3 370.81 859.81 370.81S886.28 376.09 910.32 376.09S936.06 375.05 960.84 375.05S987.41 371.39 1011.35 371.39S1038.05 372.38 1061.87 372.38S1088.7 372.19 1112.39 372.19S1138.45 371.82 1162.9 371.82S1188.85 376.98 1213.42 376.98S1239.32 382.51 1263.94 382.51S1289.95 372.6 1314.45 372.6S1340.29 367.4 1364.97 367.4S1390.78 377.86 1415.48 377.86S1441.29 369.7 1466 369.7S1492.26 369.56 1516.52 369.56L1466 633 L-100 633 Z">

</path><path stroke-width="0" fill="#738b8e" d="M-100 398.33C-73.71 386.2 -73.41 396.03 -48.15 396.03S-21.82 390.96 3.71 390.96S30.61 389 55.56 389S82.28 390.58 107.42 390.58S134.51 398.32 159.27 398.32S185.26 391.06 211.13 391.06S237.59 394.03 262.98 394.03S288.99 385.32 314.83 385.32S341.09 390.09 366.69 390.09S393.51 386.38 418.54 386.38S445.01 386.2 470.4 386.2S497.11 391.56 522.25 391.56S548.56 394.68 574.11 394.68S601.26 393.28 625.96 393.28S652.16 391.54 677.81 391.54S704.42 388.14 729.67 388.14S756.69 393.43 781.52 393.43S808.36 393.12 833.38 393.12S860.02 397.44 885.23 397.44S912.66 388.73 937.09 388.73S964.58 401.5 988.94 401.5S1015.06 397.36 1040.79 397.36S1067.64 387.64 1092.65 387.64S1119.36 383.69 1144.5 383.69S1171.59 387.41 1196.36 387.41S1223.08 388.68 1248.21 388.68S1275.62 395.36 1300.07 395.36S1327.57 393.76 1351.92 393.76S1378.39 395.32 1403.77 395.32S1430.58 395.82 1455.63 395.82S1482.38 386.15 1507.48 386.15L1466 633 L-100 633 Z">
  <animate values="M-100 398.33C-73.71 386.2 -73.41 396.03 -48.15 396.03S-21.82 390.96 3.71 390.96S30.61 389 55.56 389S82.28 390.58 107.42 390.58S134.51 398.32 159.27 398.32S185.26 391.06 211.13 391.06S237.59 394.03 262.98 394.03S288.99 385.32 314.83 385.32S341.09 390.09 366.69 390.09S393.51 386.38 418.54 386.38S445.01 386.2 470.4 386.2S497.11 391.56 522.25 391.56S548.56 394.68 574.11 394.68S601.26 393.28 625.96 393.28S652.16 391.54 677.81 391.54S704.42 388.14 729.67 388.14S756.69 393.43 781.52 393.43S808.36 393.12 833.38 393.12S860.02 397.44 885.23 397.44S912.66 388.73 937.09 388.73S964.58 401.5 988.94 401.5S1015.06 397.36 1040.79 397.36S1067.64 387.64 1092.65 387.64S1119.36 383.69 1144.5 383.69S1171.59 387.41 1196.36 387.41S1223.08 388.68 1248.21 388.68S1275.62 395.36 1300.07 395.36S1327.57 393.76 1351.92 393.76S1378.39 395.32 1403.77 395.32S1430.58 395.82 1455.63 395.82S1482.38 386.15 1507.48 386.15L1466 633 L-100 633 Z;M-100 386.66C-74.06 394.31 -73.49 388.56 -48.15 388.56S-21.52 395.37 3.71 395.37S30.45 401.27 55.56 401.27S82.94 385.27 107.42 385.27S134.38 388.13 159.27 388.13S185.65 389.4 211.13 389.4S238.53 388.57 262.98 388.57S289.08 391.2 314.83 391.2S341.16 390.05 366.69 390.05S394.09 384.32 418.54 384.32S444.67 398.49 470.4 398.49S497.16 384.39 522.25 384.39S549.09 397.63 574.11 397.63S601.11 385.55 625.96 385.55S653.06 385.68 677.81 385.68S704.16 391.05 729.67 391.05S756.55 396.24 781.52 396.24S808.17 387.56 833.38 387.56S859.56 388.63 885.23 388.63S911.99 395.74 937.09 395.74S963.74 394.72 988.94 394.72S1016.44 392.83 1040.79 392.83S1068.14 390.79 1092.65 390.79S1118.7 383.66 1144.5 383.66S1170.73 398.56 1196.36 398.56S1223.54 389.1 1248.21 389.1S1275.23 399.74 1300.07 399.74S1326.58 388.57 1351.92 388.57S1378.91 393.49 1403.77 393.49S1430.66 394.07 1455.63 394.07S1481.81 392.01 1507.48 392.01L1466 633 L-100 633 Z;M-100 398.33C-73.71 386.2 -73.41 396.03 -48.15 396.03S-21.82 390.96 3.71 390.96S30.61 389 55.56 389S82.28 390.58 107.42 390.58S134.51 398.32 159.27 398.32S185.26 391.06 211.13 391.06S237.59 394.03 262.98 394.03S288.99 385.32 314.83 385.32S341.09 390.09 366.69 390.09S393.51 386.38 418.54 386.38S445.01 386.2 470.4 386.2S497.11 391.56 522.25 391.56S548.56 394.68 574.11 394.68S601.26 393.28 625.96 393.28S652.16 391.54 677.81 391.54S704.42 388.14 729.67 388.14S756.69 393.43 781.52 393.43S808.36 393.12 833.38 393.12S860.02 397.44 885.23 397.44S912.66 388.73 937.09 388.73S964.58 401.5 988.94 401.5S1015.06 397.36 1040.79 397.36S1067.64 387.64 1092.65 387.64S1119.36 383.69 1144.5 383.69S1171.59 387.41 1196.36 387.41S1223.08 388.68 1248.21 388.68S1275.62 395.36 1300.07 395.36S1327.57 393.76 1351.92 393.76S1378.39 395.32 1403.77 395.32S1430.58 395.82 1455.63 395.82S1482.38 386.15 1507.48 386.15L1466 633 L-100 633 Z" repeatCount="indefinite" dur="22.5s" attributeName="d"></animate>
  <animateTransform keySplines="0.3 0 0.7 1;0.3 0 0.7 1" calcMode="spline" values="0;10;0" repeatCount="indefinite" begin="-2.25s" dur="2.5s" type="translate" attributeName="transform"></animateTransform>
</path><path stroke-width="0" fill="#2d5054" d="M-100 431.77C-70.83 434.98 -70.39 445.9 -43.67 445.9S-14.69 446.56 12.66 446.56S42.38 453.32 68.99 453.32S98.46 440.14 125.32 440.14S153.62 446.51 181.65 446.51S210.14 445.34 237.99 445.34S267.62 452.54 294.32 452.54S323.62 444.25 350.65 444.25S380.07 453.23 406.98 453.23S435.61 444.69 463.31 444.69S492.64 449.5 519.64 449.5S548.6 434.42 575.97 434.42S604.79 456.2 632.3 456.2S661.87 457.03 688.63 457.03S717.34 457.35 744.96 457.35S773.51 442.62 801.29 442.62S830.3 456.73 857.63 456.73S885.9 439.64 913.96 439.64S942.85 451.83 970.29 451.83S1000.02 442.75 1026.62 442.75S1056.33 439.49 1082.95 439.49S1111.51 442.55 1139.28 442.55S1167.95 445.31 1195.61 445.31S1224.15 437.26 1251.94 437.26S1280.8 450.97 1308.27 450.97S1337.39 447.04 1364.6 447.04S1394.2 450.19 1420.94 450.19S1450.57 430.98 1477.27 430.98L1466 633 L-100 633 Z">
  <animate values="M-100 431.77C-70.83 434.98 -70.39 445.9 -43.67 445.9S-14.69 446.56 12.66 446.56S42.38 453.32 68.99 453.32S98.46 440.14 125.32 440.14S153.62 446.51 181.65 446.51S210.14 445.34 237.99 445.34S267.62 452.54 294.32 452.54S323.62 444.25 350.65 444.25S380.07 453.23 406.98 453.23S435.61 444.69 463.31 444.69S492.64 449.5 519.64 449.5S548.6 434.42 575.97 434.42S604.79 456.2 632.3 456.2S661.87 457.03 688.63 457.03S717.34 457.35 744.96 457.35S773.51 442.62 801.29 442.62S830.3 456.73 857.63 456.73S885.9 439.64 913.96 439.64S942.85 451.83 970.29 451.83S1000.02 442.75 1026.62 442.75S1056.33 439.49 1082.95 439.49S1111.51 442.55 1139.28 442.55S1167.95 445.31 1195.61 445.31S1224.15 437.26 1251.94 437.26S1280.8 450.97 1308.27 450.97S1337.39 447.04 1364.6 447.04S1394.2 450.19 1420.94 450.19S1450.57 430.98 1477.27 430.98L1466 633 L-100 633 Z;M-100 431.53C-71.22 430.69 -71.36 449.36 -43.67 449.36S-15.11 447.61 12.66 447.61S40.85 445.52 68.99 445.52S97.92 433.75 125.32 433.75S154.14 455.53 181.65 455.53S210.64 440.69 237.99 440.69S267.15 449.24 294.32 449.24S323.52 446 350.65 446S380.13 452.08 406.98 452.08S435.27 430.48 463.31 430.48S493 444.96 519.64 444.96S548.77 434.93 575.97 434.93S605.47 458.52 632.3 458.52S661.63 435.56 688.63 435.56S718.27 443.51 744.96 443.51S773.39 452.42 801.29 452.42S829.73 450.3 857.63 450.3S886.67 445.87 913.96 445.87S943.64 444.87 970.29 444.87S998.99 431.13 1026.62 431.13S1056.03 445.17 1082.95 445.17S1111.71 442.01 1139.28 442.01S1168.05 456.67 1195.61 456.67S1223.81 438.21 1251.94 438.21S1280.71 439.16 1308.27 439.16S1337.11 431.98 1364.6 431.98S1393.4 456.03 1420.94 456.03S1450.38 434.78 1477.27 434.78L1466 633 L-100 633 Z;M-100 431.77C-70.83 434.98 -70.39 445.9 -43.67 445.9S-14.69 446.56 12.66 446.56S42.38 453.32 68.99 453.32S98.46 440.14 125.32 440.14S153.62 446.51 181.65 446.51S210.14 445.34 237.99 445.34S267.62 452.54 294.32 452.54S323.62 444.25 350.65 444.25S380.07 453.23 406.98 453.23S435.61 444.69 463.31 444.69S492.64 449.5 519.64 449.5S548.6 434.42 575.97 434.42S604.79 456.2 632.3 456.2S661.87 457.03 688.63 457.03S717.34 457.35 744.96 457.35S773.51 442.62 801.29 442.62S830.3 456.73 857.63 456.73S885.9 439.64 913.96 439.64S942.85 451.83 970.29 451.83S1000.02 442.75 1026.62 442.75S1056.33 439.49 1082.95 439.49S1111.51 442.55 1139.28 442.55S1167.95 445.31 1195.61 445.31S1224.15 437.26 1251.94 437.26S1280.8 450.97 1308.27 450.97S1337.39 447.04 1364.6 447.04S1394.2 450.19 1420.94 450.19S1450.57 430.98 1477.27 430.98L1466 633 L-100 633 Z" repeatCount="indefinite" dur="15s" attributeName="d"></animate>
  <animateTransform keySplines="0.3 0 0.7 1;0.3 0 0.7 1" calcMode="spline" values="0;10;0" repeatCount="indefinite" begin="-6s" dur="6s" type="translate" attributeName="transform"></animateTransform>
</path><path stroke-width="0" fill="#144146" d="M-100 512.96C-66.36 523.71 -66.67 524.07 -34.2 524.07S-1.01 522.07 31.6 522.07S65.23 523.53 97.39 523.53S131.09 541.6 163.19 541.6S197.29 543.07 228.99 543.07S262.05 513.62 294.79 513.62S328.41 546.74 360.59 546.74S394.43 542.54 426.39 542.54S460.06 542.46 492.18 542.46S525.76 518.65 557.98 518.65S591.33 546.67 623.78 546.67S658.02 519.79 689.58 519.79S723.21 541.76 755.38 541.76S789.24 512.95 821.18 512.95S855.44 512.64 886.97 512.64S920.42 542.6 952.77 542.6S986.67 540.88 1018.57 540.88S1051.86 513.07 1084.37 513.07S1117.91 544.93 1150.17 544.93S1184.1 520.95 1215.97 520.95S1250.31 540.17 1281.76 540.17S1316.19 512.53 1347.56 512.53S1380.53 549.32 1413.36 549.32S1447.11 519.89 1479.16 519.89L1466 633 L-100 633 Z">
  <animate values="M-100 512.96C-66.36 523.71 -66.67 524.07 -34.2 524.07S-1.01 522.07 31.6 522.07S65.23 523.53 97.39 523.53S131.09 541.6 163.19 541.6S197.29 543.07 228.99 543.07S262.05 513.62 294.79 513.62S328.41 546.74 360.59 546.74S394.43 542.54 426.39 542.54S460.06 542.46 492.18 542.46S525.76 518.65 557.98 518.65S591.33 546.67 623.78 546.67S658.02 519.79 689.58 519.79S723.21 541.76 755.38 541.76S789.24 512.95 821.18 512.95S855.44 512.64 886.97 512.64S920.42 542.6 952.77 542.6S986.67 540.88 1018.57 540.88S1051.86 513.07 1084.37 513.07S1117.91 544.93 1150.17 544.93S1184.1 520.95 1215.97 520.95S1250.31 540.17 1281.76 540.17S1316.19 512.53 1347.56 512.53S1380.53 549.32 1413.36 549.32S1447.11 519.89 1479.16 519.89L1466 633 L-100 633 Z;M-100 544.96C-66.6 547.14 -66.3 547.84 -34.2 547.84S-0.67 525.25 31.6 525.25S65.96 552.06 97.39 552.06S130.32 520.52 163.19 520.52S197.09 546.55 228.99 546.55S261.98 518.46 294.79 518.46S328.17 552.26 360.59 552.26S394.69 515.42 426.39 515.42S460.8 546.98 492.18 546.98S525.75 513.54 557.98 513.54S591.62 540.31 623.78 540.31S657.35 511.73 689.58 511.73S723.39 541.64 755.38 541.64S788.78 511.86 821.18 511.86S855.63 545.66 886.97 545.66S921.41 512.51 952.77 512.51S986.03 545.9 1018.57 545.9S1052.76 541.95 1084.37 541.95S1118.8 538.78 1150.17 538.78S1184.34 512.33 1215.97 512.33S1249.11 547.28 1281.76 547.28S1315.35 525.02 1347.56 525.02S1380.62 547.43 1413.36 547.43S1446.86 517.36 1479.16 517.36L1466 633 L-100 633 Z;M-100 512.96C-66.36 523.71 -66.67 524.07 -34.2 524.07S-1.01 522.07 31.6 522.07S65.23 523.53 97.39 523.53S131.09 541.6 163.19 541.6S197.29 543.07 228.99 543.07S262.05 513.62 294.79 513.62S328.41 546.74 360.59 546.74S394.43 542.54 426.39 542.54S460.06 542.46 492.18 542.46S525.76 518.65 557.98 518.65S591.33 546.67 623.78 546.67S658.02 519.79 689.58 519.79S723.21 541.76 755.38 541.76S789.24 512.95 821.18 512.95S855.44 512.64 886.97 512.64S920.42 542.6 952.77 542.6S986.67 540.88 1018.57 540.88S1051.86 513.07 1084.37 513.07S1117.91 544.93 1150.17 544.93S1184.1 520.95 1215.97 520.95S1250.31 540.17 1281.76 540.17S1316.19 512.53 1347.56 512.53S1380.53 549.32 1413.36 549.32S1447.11 519.89 1479.16 519.89L1466 633 L-100 633 Z" repeatCount="indefinite" dur="2.5s" attributeName="d"></animate>
  <animateTransform keySplines="0.3 0 0.7 1;0.3 0 0.7 1" calcMode="spline" values="0;10;0" repeatCount="indefinite" begin="-2.25s" dur="10s" type="translate" attributeName="transform"></animateTransform>

</path><g></g></g><!-- [ldio] generated by https://loading.io --></svg>