<svg xmlns="http://www.w3.org/2000/svg" viewBox="0 0 1366 633" preserveAspectRatio="xMidYMid" width="1366" height="633" style="shape-rendering: auto; display: block; background: rgb(1, 44, 50);" xmlns:xlink="http://www.w3.org/1999/xlink"><g><path stroke-width="0" fill="#0f3135" d="M-100 379.61C-74.5 377.75 -74.16 377.8 -49.48 377.8S-23.11 374.24 1.03 374.24S27.72 373.47 51.55 373.47S77.6 381.63 102.06 381.63S127.92 370.14 152.58 370.14S178.03 375.59 203.1 375.59S228.95 379.14 253.61 379.14S280.11 369.08 304.13 369.08S330.66 378.16 354.65 378.16S381.44 372.89 405.16 372.89S431.25 371.63 455.68 371.63S481.6 368.05 506.19 368.05S531.68 371.8 556.71 371.8S582.38 375.58 607.23 375.58S633.68 374.77 657.74 374.77S684.5 381.91 708.26 381.91S733.93 382.83 758.77 382.83S784.38 380.32 809.29 380.32S835.3 370.81 859.81 370.81S886.28 376.09 910.32 376.09S936.06 375.05 960.84 375.05S987.41 371.39 1011.35 371.39S1038.05 372.38 1061.87 372.38S1088.7 372.19 1112.39 372.19S1138.45 371.82 1162.9 371.82S1188.85 376.98 1213.42 376.98S1239.32 382.51 1263.94 382.51S1289.95 372.6 1314.45 372.6S1340.29 367.4 1364.97 367.4S1390.78 377.86 1415.48 377.86S1441.29 369.7 1466 369.7S1492.26 369.56 1516.52 369.56L1466 633 L-100 633 Z">
  <animate values="M-100 379.61C-74.5 377.75 -74.16 377.8 -49.48 377.8S-23.11 374.24 1.03 374.24S27.72 373.47 51.55 373.47S77.6 381.63 102.06 381.63S127.92 370.14 152.58 370.14S178.03 375.59 203.1 375.59S228.95 379.14 253.61 379.14S280.11 369.08 304.13 369.08S330.66 378.16 354.65 378.16S381.44 372.89 405.16 372.89S431.25 371.63 455.68 371.63S481.6 368.05 506.19 368.05S531.68 371.8 556.71 371.8S582.38 375.58 607.23 375.58S633.68 374.77 657.74 374.77S684.5 381.91 708.26 381.91S733.93 382.83 758.77 382.83S784.38 380.32 809.29 380.32S835.3 370.81 859.81 370.81S886.28 376.09 910.32 376.09S936.06 375.05 960.84 375.05S987.41 371.39 1011.35 371.39S1038.05 372.38 1061.87 372.38S1088.7 372.19 1112.39 372.19S1138.45 371.82 1162.9 371.82S1188.85 376.98 1213.42 376.98S1239.32 382.51 1263.94 382.51S1289.95 372.6 1314.45 372.6S1340.29 367.4 1364.97 367.4S1390.78 377.86 1415.48 377.86S1441.29 369.7 1466 369.7S1492.26 369.56 1516.52 369.56L1466 633 L-100 633 Z;M-100 382.38C-73.54 369.05 -74.28 369.65 -49.48 369.65S-24.21 375.6 1.03 375.6S26.71 381.97 51.55 381.97S77.52 372.09 102.06 372.09S128.29 374.83 152.58 374.83S178.65 370.02 203.1 370.02S229.45 380.02 253.61 380.02S278.88 372.53 304.13 372.53S330.14 380.84 354.65 380.84S379.97 369.05 405.16 369.05S430.95 376.82 455.68 376.82S482.5 370.43 506.19 370.43S531.99 369.19 556.71 369.19S582.79 377.2 607.23 377.2S633.52 380.1 657.74 380.1S683.68 372.74 708.26 372.74S734.55 377.3 758.77 377.3S784.41 378.45 809.29 378.45S835.29 370.87 859.81 370.87S886.08 377.53 910.32 377.53S935.64 368.85 960.84 368.85S986.22 369.18 1011.35 369.18S1037.99 381.92 1061.87 381.92S1088.65 377.44 1112.39 377.44S1138.82 379.67 1162.9 379.67S1188.99 369.36 1213.42 369.36S1239.31 375.7 1263.94 375.7S1290.26 372.99 1314.45 372.99S1341.21 367.82 1364.97 367.82S1390.88 370.19 1415.48 370.19S1442.07 375.04 1466 375.04S1492.13 377.38 1516.52 377.38L1466 633 L-100 633 Z;M-100 379.61C-74.5 377.75 -74.16 377.8 -49.48 377.8S-23.11 374.24 1.03 374.24S27.72 373.47 51.55 373.47S77.6 381.63 102.06 381.63S127.92 370.14 152.58 370.14S178.03 375.59 203.1 375.59S228.95 379.14 253.61 379.14S280.11 369.08 304.13 369.08S330.66 378.16 354.65 378.16S381.44 372.89 405.16 372.89S431.25 371.63 455.68 371.63S481.6 368.05 506.19 368.05S531.68 371.8 556.71 371.8S582.38 375.58 607.23 375.58S633.68 374.77 657.74 374.77S684.5 381.91 708.26 381.91S733.93 382.83 758.77 382.83S784.38 380.32 809.29 380.32S835.3 370.81 859.81 370.81S886.28 376.09 910.32 376.09S936.06 375.05 960.84 375.05S987.41 371.39 1011.35 371.39S1038.05 372.38 1061.87 372.38S1088.7 372.19 1112.39 372.19S1138.45 371.82 1162.9 371.82S1188.85 376.98 1213.42 376.98S1239.32 382.51 1263.94 382.51S1289.95 372.6 1314.45 372.6S1340.29 367.4 1364.97 367.4S1390.78 377.86 1415.48 377.86S1441.29 369.7 1466 369.7S1492.26 369.56 1516.52 369.56L1466 633 L-100 633 Z" repeatCount="indefinite" dur="25s" attributeName="d"></animate>
  <animateTransform keySplines="0.3 0 0.7 1;0.3 0 0.7 1" calcMode="spline" values="0;10;0" repeatCount="indefinite" begin="0s" dur="25s" type="translate" attributeName="transform"></animateTransform>
</path><path stroke-width="0" fill="#254346" d="M-100 512.96C-66.36 523.71 -66.67 524.07 -34.2 524.07S-1.01 522.07 31.6 522.07S65.23 523.53 97.39 523.53S131.09 541.6 163.19 541.6S197.29 543.07 228.99 543.07S262.05 513.62 294.79 513.62S328.41 546.74 360.59 546.74S394.43 542.54 426.39 542.54S460.06 542.46 492.18 542.46S525.76 518.65 557.98 518.65S591.33 546.67 623.78 546.67S658.02 519.79 689.58 519.79S723.21 541.76 755.38 541.76S789.24 512.95 821.18 512.95S855.44 512.64 886.97 512.64S920.42 542.6 952.77 542.6S986.67 540.88 1018.57 540.88S1051.86 513.07 1084.37 513.07S1117.91 544.93 1150.17 544.93S1184.1 520.95 1215.97 520.95S1250.31 540.17 1281.76 540.17S1316.19 512.53 1347.56 512.53S1380.53 549.32 1413.36 549.32S1447.11 519.89 1479.16 519.89L1466 633 L-100 633 Z">
  <animate values="M-100 398.33C-73.71 386.2 -73.41 396.03 -48.15 396.03S-21.82 390.96 3.71 390.96S30.61 389 55.56 389S82.28 390.58 107.42 390.58S134.51 398.32 159.27 398.32S185.26 391.06 211.13 391.06S237.59 394.03 262.98 394.03S288.99 385.32 314.83 385.32S341.09 390.09 366.69 390.09S393.51 386.38 418.54 386.38S445.01 386.2 470.4 386.2S497.11 391.56 522.25 391.56S548.56 394.68 574.11 394.68S601.26 393.28 625.96 393.28S652.16 391.54 677.81 391.54S704.42 388.14 729.67 388.14S756.69 393.43 781.52 393.43S808.36 393.12 833.38 393.12S860.02 397.44 885.23 397.44S912.66 388.73 937.09 388.73S964.58 401.5 988.94 401.5S1015.06 397.36 1040.79 397.36S1067.64 387.64 1092.65 387.64S1119.36 383.69 1144.5 383.69S1171.59 387.41 1196.36 387.41S1223.08 388.68 1248.21 388.68S1275.62 395.36 1300.07 395.36S1327.57 393.76 1351.92 393.76S1378.39 395.32 1403.77 395.32S1430.58 395.82 1455.63 395.82S1482.38 386.15 1507.48 386.15L1466 633 L-100 633 Z;M-100 386.66C-74.06 394.31 -73.49 388.56 -48.15 388.56S-21.52 395.37 3.71 395.37S30.45 401.27 55.56 401.27S82.94 385.27 107.42 385.27S134.38 388.13 159.27 388.13S185.65 389.4 211.13 389.4S238.53 388.57 262.98 388.57S289.08 391.2 314.83 391.2S341.16 390.05 366.69 390.05S394.09 384.32 418.54 384.32S444.67 398.49 470.4 398.49S497.16 384.39 522.25 384.39S549.09 397.63 574.11 397.63S601.11 385.55 625.96 385.55S653.06 385.68 677.81 385.68S704.16 391.05 729.67 391.05S756.55 396.24 781.52 396.24S808.17 387.56 833.38 387.56S859.56 388.63 885.23 388.63S911.99 395.74 937.09 395.74S963.74 394.72 988.94 394.72S1016.44 392.83 1040.79 392.83S1068.14 390.79 1092.65 390.79S1118.7 383.66 1144.5 383.66S1170.73 398.56 1196.36 398.56S1223.54 389.1 1248.21 389.1S1275.23 399.74 1300.07 399.74S1326.58 388.57 1351.92 388.57S1378.91 393.49 1403.77 393.49S1430.66 394.07 1455.63 394.07S1481.81 392.01 1507.48 392.01L1466 633 L-100 633 Z;M-100 398.33C-73.71 386.2 -73.41 396.03 -48.15 396.03S-21.82 390.96 3.71 390.96S30.61 389 55.56 389S82.28 390.58 107.42 390.58S134.51 398.32 159.27 398.32S185.26 391.06 211.13 391.06S237.59 394.03 262.98 394.03S288.99 385.32 314.83 385.32S341.09 390.09 366.69 390.09S393.51 386.38 418.54 386.38S445.01 386.2 470.4 386.2S497.11 391.56 522.25 391.56S548.56 394.68 574.11 394.68S601.26 393.28 625.96 393.28S652.16 391.54 677.81 391.54S704.42 388.14 729.67 388.14S756.69 393.43 781.52 393.43S808.36 393.12 833.38 393.12S860.02 397.44 885.23 397.44S912.66 388.73 937.09 388.73S964.58 401.5 988.94 401.5S1015.06 397.36 1040.79 397.36S1067.64 387.64 1092.65 387.64S1119.36 383.69 1144.5 383.69S1171.59 387.41 1196.36 387.41S1223.08 388.68 1248.21 388.68S1275.62 395.36 1300.07 395.36S1327.57 393.76 1351.92 393.76S1378.39 395.32 1403.77 395.32S1430.58 395.82 1455.63 395.82S1482.38 386.15 1507.48 386.15L1466 633 L-100 633 Z" repeatCount="indefinite" dur="22.5s" attributeName="d"></animate>
  <animateTransform keySplines="0.3 0 0.7 1;0.3 0 0.7 1" calcMode="spline" values="0;10;0" repeatCount="indefinite" begin="-2.25s" dur="22.5s" type="translate" attributeName="transform"></animateTransform>
</path><path stroke-width="0" fill="#3b5658" d="M-100 413.06C-71.8 414.18 -72.16 415.05 -46.73 415.05S-18.8 413.15 6.53 413.15S33.56 413.63 59.8 413.63S87.62 405.66 113.06 405.66S140.54 414.06 166.33 414.06S193.5 401.06 219.59 401.06S246.96 407.72 272.86 407.72S300.17 410.02 326.12 410.02S353.79 416 379.39 416S407.5 413.59 432.65 413.59S459.84 419.07 485.92 419.07S513.94 413.78 539.18 413.78S566.76 413.29 592.45 413.29S620.55 406.02 645.71 406.02S673.64 420.71 698.98 420.71S727.05 398.9 752.24 398.9S780.16 404.78 805.51 404.78S832.55 413.44 858.78 413.44S886.79 412.81 912.04 412.81S938.86 409.24 965.31 409.24S992.15 416.9 1018.57 416.9S1045.54 409.14 1071.84 409.14S1099.98 418.86 1125.1 418.86S1152.96 410.31 1178.37 410.31S1206.28 408.11 1231.63 408.11S1259.24 405.97 1284.9 405.97S1311.58 411.29 1338.16 411.29S1365.79 413.39 1391.43 413.39S1418.92 412.15 1444.69 412.15S1472.01 418.15 1497.96 418.15L1466 633 L-100 633 Z">
  <animate values="M-100 413.06C-71.8 414.18 -72.16 415.05 -46.73 415.05S-18.8 413.15 6.53 413.15S33.56 413.63 59.8 413.63S87.62 405.66 113.06 405.66S140.54 414.06 166.33 414.06S193.5 401.06 219.59 401.06S246.96 407.72 272.86 407.72S300.17 410.02 326.12 410.02S353.79 416 379.39 416S407.5 413.59 432.65 413.59S459.84 419.07 485.92 419.07S513.94 413.78 539.18 413.78S566.76 413.29 592.45 413.29S620.55 406.02 645.71 406.02S673.64 420.71 698.98 420.71S727.05 398.9 752.24 398.9S780.16 404.78 805.51 404.78S832.55 413.44 858.78 413.44S886.79 412.81 912.04 412.81S938.86 409.24 965.31 409.24S992.15 416.9 1018.57 416.9S1045.54 409.14 1071.84 409.14S1099.98 418.86 1125.1 418.86S1152.96 410.31 1178.37 410.31S1206.28 408.11 1231.63 408.11S1259.24 405.97 1284.9 405.97S1311.58 411.29 1338.16 411.29S1365.79 413.39 1391.43 413.39S1418.92 412.15 1444.69 412.15S1472.01 418.15 1497.96 418.15L1466 633 L-100 633 Z;M-100 408.2C-72.95 403.04 -72.47 407.39 -46.73 407.39S-20 407.55 6.53 407.55S33.98 411.46 59.8 411.46S86.66 413.45 113.06 413.45S140 415.1 166.33 415.1S194.29 401.8 219.59 401.8S246.9 413.97 272.86 413.97S300.78 412.92 326.12 412.92S354 414.07 379.39 414.07S407.02 403.99 432.65 403.99S459.67 410.69 485.92 410.69S513.66 418.77 539.18 418.77S566.15 413.96 592.45 413.96S620.4 412.24 645.71 412.24S672.79 414.1 698.98 414.1S726.24 416.21 752.24 416.21S780.02 420.89 805.51 420.89S832.51 407.77 858.78 407.77S886.89 411.19 912.04 411.19S939.16 412.25 965.31 412.25S992.21 413.19 1018.57 413.19S1046.45 407.74 1071.84 407.74S1099.42 415.73 1125.1 415.73S1153.23 401.27 1178.37 401.27S1206.41 405.98 1231.63 405.98S1258.78 408.74 1284.9 408.74S1313.04 409.86 1338.16 409.86S1365.24 410.42 1391.43 410.42S1418.09 415.43 1444.69 415.43S1472.5 410.63 1497.96 410.63L1466 633 L-100 633 Z;M-100 413.06C-71.8 414.18 -72.16 415.05 -46.73 415.05S-18.8 413.15 6.53 413.15S33.56 413.63 59.8 413.63S87.62 405.66 113.06 405.66S140.54 414.06 166.33 414.06S193.5 401.06 219.59 401.06S246.96 407.72 272.86 407.72S300.17 410.02 326.12 410.02S353.79 416 379.39 416S407.5 413.59 432.65 413.59S459.84 419.07 485.92 419.07S513.94 413.78 539.18 413.78S566.76 413.29 592.45 413.29S620.55 406.02 645.71 406.02S673.64 420.71 698.98 420.71S727.05 398.9 752.24 398.9S780.16 404.78 805.51 404.78S832.55 413.44 858.78 413.44S886.79 412.81 912.04 412.81S938.86 409.24 965.31 409.24S992.15 416.9 1018.57 416.9S1045.54 409.14 1071.84 409.14S1099.98 418.86 1125.1 418.86S1152.96 410.31 1178.37 410.31S1206.28 408.11 1231.63 408.11S1259.24 405.97 1284.9 405.97S1311.58 411.29 1338.16 411.29S1365.79 413.39 1391.43 413.39S1418.92 412.15 1444.69 412.15S1472.01 418.15 1497.96 418.15L1466 633 L-100 633 Z" repeatCount="indefinite" dur="20s" attributeName="d"></animate>
  <animateTransform keySplines="0.3 0 0.7 1;0.3 0 0.7 1" calcMode="spline" values="0;10;0" repeatCount="indefinite" begin="-4s" dur="20s" type="translate" attributeName="transform"></animateTransform>
</path><path stroke-width="0" fill="#51696b" d="M-100 422.51C-72.01 426.52 -72.26 434.77 -45.24 434.77S-16.77 436.06 9.51 436.06S38.39 432.24 64.27 432.24S92.9 420.05 119.02 420.05S146.57 435.73 173.78 435.73S201.17 421.93 228.53 421.93S257.31 418.66 283.29 418.66S312.15 435.48 338.04 435.48S366.14 431.34 392.8 431.34S421.67 414.68 447.55 414.68S475.04 420.27 502.31 420.27S529.8 422.85 557.06 422.85S585.7 426.81 611.82 426.81S640.35 420.23 666.57 420.23S694.08 428.77 721.33 428.77S749.68 414.81 776.08 414.81S804.01 437.74 830.84 437.74S858.45 428.85 885.59 428.85S914.38 434.28 940.35 434.28S967.76 435 995.1 435S1022.49 422.96 1049.86 422.96S1078.53 425.36 1104.62 425.36S1132.48 439 1159.37 439S1187.86 437.09 1214.13 437.09S1242.15 434.99 1268.88 434.99S1297.66 424.14 1323.64 424.14S1352.35 439.21 1378.39 439.21S1406.45 427.7 1433.15 427.7S1461.32 429.02 1487.9 429.02L1466 633 L-100 633 Z">
  <animate values="M-100 422.51C-72.01 426.52 -72.26 434.77 -45.24 434.77S-16.77 436.06 9.51 436.06S38.39 432.24 64.27 432.24S92.9 420.05 119.02 420.05S146.57 435.73 173.78 435.73S201.17 421.93 228.53 421.93S257.31 418.66 283.29 418.66S312.15 435.48 338.04 435.48S366.14 431.34 392.8 431.34S421.67 414.68 447.55 414.68S475.04 420.27 502.31 420.27S529.8 422.85 557.06 422.85S585.7 426.81 611.82 426.81S640.35 420.23 666.57 420.23S694.08 428.77 721.33 428.77S749.68 414.81 776.08 414.81S804.01 437.74 830.84 437.74S858.45 428.85 885.59 428.85S914.38 434.28 940.35 434.28S967.76 435 995.1 435S1022.49 422.96 1049.86 422.96S1078.53 425.36 1104.62 425.36S1132.48 439 1159.37 439S1187.86 437.09 1214.13 437.09S1242.15 434.99 1268.88 434.99S1297.66 424.14 1323.64 424.14S1352.35 439.21 1378.39 439.21S1406.45 427.7 1433.15 427.7S1461.32 429.02 1487.9 429.02L1466 633 L-100 633 Z;M-100 435.29C-71.49 424.51 -72.07 435.77 -45.24 435.77S-16.35 429.34 9.51 429.34S37.29 434 64.27 434S92.96 417.61 119.02 417.61S146.96 437.21 173.78 437.21S202.46 422.22 228.53 422.22S256.19 438.53 283.29 438.53S312.17 427.27 338.04 427.27S365.59 424.3 392.8 424.3S421.49 419.26 447.55 419.26S476.33 426.64 502.31 426.64S530.12 427.88 557.06 427.88S585.59 431.46 611.82 431.46S639.94 419.05 666.57 419.05S694.16 427.7 721.33 427.7S748.75 423.54 776.08 423.54S804.55 427.73 830.84 427.73S858.89 427.8 885.59 427.8S913.52 438.3 940.35 438.3S967.76 414.88 995.1 414.88S1023.21 435.81 1049.86 435.81S1078.34 422.2 1104.62 422.2S1132.38 439.93 1159.37 439.93S1188.1 419.57 1214.13 419.57S1241.77 427.99 1268.88 427.99S1297.41 417.63 1323.64 417.63S1351.18 435.56 1378.39 435.56S1406.17 425.96 1433.15 425.96S1461.28 437.75 1487.9 437.75L1466 633 L-100 633 Z;M-100 422.51C-72.01 426.52 -72.26 434.77 -45.24 434.77S-16.77 436.06 9.51 436.06S38.39 432.24 64.27 432.24S92.9 420.05 119.02 420.05S146.57 435.73 173.78 435.73S201.17 421.93 228.53 421.93S257.31 418.66 283.29 418.66S312.15 435.48 338.04 435.48S366.14 431.34 392.8 431.34S421.67 414.68 447.55 414.68S475.04 420.27 502.31 420.27S529.8 422.85 557.06 422.85S585.7 426.81 611.82 426.81S640.35 420.23 666.57 420.23S694.08 428.77 721.33 428.77S749.68 414.81 776.08 414.81S804.01 437.74 830.84 437.74S858.45 428.85 885.59 428.85S914.38 434.28 940.35 434.28S967.76 435 995.1 435S1022.49 422.96 1049.86 422.96S1078.53 425.36 1104.62 425.36S1132.48 439 1159.37 439S1187.86 437.09 1214.13 437.09S1242.15 434.99 1268.88 434.99S1297.66 424.14 1323.64 424.14S1352.35 439.21 1378.39 439.21S1406.45 427.7 1433.15 427.7S1461.32 429.02 1487.9 429.02L1466 633 L-100 633 Z" repeatCount="indefinite" dur="17.5s" attributeName="d"></animate>
  <animateTransform keySplines="0.3 0 0.7 1;0.3 0 0.7 1" calcMode="spline" values="0;10;0" repeatCount="indefinite" begin="-5.25s" dur="17.5s" type="translate" attributeName="transform"></animateTransform>
</path><path stroke-width="0" fill="#677d7f" d="M-100 431.77C-70.83 434.98 -70.39 445.9 -43.67 445.9S-14.69 446.56 12.66 446.56S42.38 453.32 68.99 453.32S98.46 440.14 125.32 440.14S153.62 446.51 181.65 446.51S210.14 445.34 237.99 445.34S267.62 452.54 294.32 452.54S323.62 444.25 350.65 444.25S380.07 453.23 406.98 453.23S435.61 444.69 463.31 444.69S492.64 449.5 519.64 449.5S548.6 434.42 575.97 434.42S604.79 456.2 632.3 456.2S661.87 457.03 688.63 457.03S717.34 457.35 744.96 457.35S773.51 442.62 801.29 442.62S830.3 456.73 857.63 456.73S885.9 439.64 913.96 439.64S942.85 451.83 970.29 451.83S1000.02 442.75 1026.62 442.75S1056.33 439.49 1082.95 439.49S1111.51 442.55 1139.28 442.55S1167.95 445.31 1195.61 445.31S1224.15 437.26 1251.94 437.26S1280.8 450.97 1308.27 450.97S1337.39 447.04 1364.6 447.04S1394.2 450.19 1420.94 450.19S1450.57 430.98 1477.27 430.98L1466 633 L-100 633 Z">
  <animate values="M-100 431.77C-70.83 434.98 -70.39 445.9 -43.67 445.9S-14.69 446.56 12.66 446.56S42.38 453.32 68.99 453.32S98.46 440.14 125.32 440.14S153.62 446.51 181.65 446.51S210.14 445.34 237.99 445.34S267.62 452.54 294.32 452.54S323.62 444.25 350.65 444.25S380.07 453.23 406.98 453.23S435.61 444.69 463.31 444.69S492.64 449.5 519.64 449.5S548.6 434.42 575.97 434.42S604.79 456.2 632.3 456.2S661.87 457.03 688.63 457.03S717.34 457.35 744.96 457.35S773.51 442.62 801.29 442.62S830.3 456.73 857.63 456.73S885.9 439.64 913.96 439.64S942.85 451.83 970.29 451.83S1000.02 442.75 1026.62 442.75S1056.33 439.49 1082.95 439.49S1111.51 442.55 1139.28 442.55S1167.95 445.31 1195.61 445.31S1224.15 437.26 1251.94 437.26S1280.8 450.97 1308.27 450.97S1337.39 447.04 1364.6 447.04S1394.2 450.19 1420.94 450.19S1450.57 430.98 1477.27 430.98L1466 633 L-100 633 Z;M-100 431.53C-71.22 430.69 -71.36 449.36 -43.67 449.36S-15.11 447.61 12.66 447.61S40.85 445.52 68.99 445.52S97.92 433.75 125.32 433.75S154.14 455.53 181.65 455.53S210.64 440.69 237.99 440.69S267.15 449.24 294.32 449.24S323.52 446 350.65 446S380.13 452.08 406.98 452.08S435.27 430.48 463.31 430.48S493 444.96 519.64 444.96S548.77 434.93 575.97 434.93S605.47 458.52 632.3 458.52S661.63 435.56 688.63 435.56S718.27 443.51 744.96 443.51S773.39 452.42 801.29 452.42S829.73 450.3 857.63 450.3S886.67 445.87 913.96 445.87S943.64 444.87 970.29 444.87S998.99 431.13 1026.62 431.13S1056.03 445.17 1082.95 445.17S1111.71 442.01 1139.28 442.01S1168.05 456.67 1195.61 456.67S1223.81 438.21 1251.94 438.21S1280.71 439.16 1308.27 439.16S1337.11 431.98 1364.6 431.98S1393.4 456.03 1420.94 456.03S1450.38 434.78 1477.27 434.78L1466 633 L-100 633 Z;M-100 431.77C-70.83 434.98 -70.39 445.9 -43.67 445.9S-14.69 446.56 12.66 446.56S42.38 453.32 68.99 453.32S98.46 440.14 125.32 440.14S153.62 446.51 181.65 446.51S210.14 445.34 237.99 445.34S267.62 452.54 294.32 452.54S323.62 444.25 350.65 444.25S380.07 453.23 406.98 453.23S435.61 444.69 463.31 444.69S492.64 449.5 519.64 449.5S548.6 434.42 575.97 434.42S604.79 456.2 632.3 456.2S661.87 457.03 688.63 457.03S717.34 457.35 744.96 457.35S773.51 442.62 801.29 442.62S830.3 456.73 857.63 456.73S885.9 439.64 913.96 439.64S942.85 451.83 970.29 451.83S1000.02 442.75 1026.62 442.75S1056.33 439.49 1082.95 439.49S1111.51 442.55 1139.28 442.55S1167.95 445.31 1195.61 445.31S1224.15 437.26 1251.94 437.26S1280.8 450.97 1308.27 450.97S1337.39 447.04 1364.6 447.04S1394.2 450.19 1420.94 450.19S1450.57 430.98 1477.27 430.98L1466 633 L-100 633 Z" repeatCount="indefinite" dur="15s" attributeName="d"></animate>
  <animateTransform keySplines="0.3 0 0.7 1;0.3 0 0.7 1" calcMode="spline" values="0;10;0" repeatCount="indefinite" begin="-6s" dur="15s" type="translate" attributeName="transform"></animateTransform>
</path><path stroke-width="0" fill="#7e9193" d="M-100 453.31C-70.08 452.76 -69.8 471.13 -42 471.13S-11.99 447.47 16 447.47S46.13 470.86 74 470.86S103.46 448.24 132 448.24S161.71 463.48 190 463.48S220.16 448.96 248 448.96S277 471 306 471S335.84 459.55 364 459.55S394.11 470.44 422 470.44S451.49 457.53 480 457.53S510.15 475.48 538 475.48S567.8 451.82 596 451.82S625.22 472.38 654 472.38S684.39 460.82 712 460.82S741.03 471.07 770 471.07S799.76 467.84 828 467.84S857.3 467.03 886 467.03S916.14 460.02 944 460.02S973.43 474.2 1002 474.2S1031.46 457.22 1060 457.22S1090.45 475.82 1118 475.82S1147.25 454.02 1176 454.02S1205.57 468.32 1234 468.32S1264.15 448.75 1292 448.75S1321.68 463.91 1350 463.91S1379.32 460.85 1408 460.85S1438.37 470.73 1466 470.73S1495.64 449.96 1524 449.96L1466 633 L-100 633 Z">
  <animate values="M-100 453.31C-70.08 452.76 -69.8 471.13 -42 471.13S-11.99 447.47 16 447.47S46.13 470.86 74 470.86S103.46 448.24 132 448.24S161.71 463.48 190 463.48S220.16 448.96 248 448.96S277 471 306 471S335.84 459.55 364 459.55S394.11 470.44 422 470.44S451.49 457.53 480 457.53S510.15 475.48 538 475.48S567.8 451.82 596 451.82S625.22 472.38 654 472.38S684.39 460.82 712 460.82S741.03 471.07 770 471.07S799.76 467.84 828 467.84S857.3 467.03 886 467.03S916.14 460.02 944 460.02S973.43 474.2 1002 474.2S1031.46 457.22 1060 457.22S1090.45 475.82 1118 475.82S1147.25 454.02 1176 454.02S1205.57 468.32 1234 468.32S1264.15 448.75 1292 448.75S1321.68 463.91 1350 463.91S1379.32 460.85 1408 460.85S1438.37 470.73 1466 470.73S1495.64 449.96 1524 449.96L1466 633 L-100 633 Z;M-100 454.33C-70.39 446.66 -70.34 464.96 -42 464.96S-12.09 457.01 16 457.01S46.19 472.11 74 472.11S103.97 450.31 132 450.31S161.9 473.48 190 473.48S219.92 453.39 248 453.39S277.85 465.73 306 465.73S335.29 453.38 364 453.38S393.06 474.43 422 474.43S451.24 453.88 480 453.88S509.42 453.71 538 453.71S568.1 451.68 596 451.68S625.88 477.61 654 477.61S683.56 454.53 712 454.53S742.06 476.3 770 476.3S799.89 456.9 828 456.9S858.44 467.43 886 467.43S915.85 450.79 944 450.79S973.44 462.47 1002 462.47S1032.27 451.42 1060 451.42S1090.51 466.71 1118 466.71S1147.22 460.5 1176 460.5S1206.03 448.75 1234 448.75S1263.41 474.25 1292 474.25S1321.72 471.95 1350 471.95S1380.06 460.62 1408 460.62S1437.91 468.75 1466 468.75S1495.61 450.46 1524 450.46L1466 633 L-100 633 Z;M-100 453.31C-70.08 452.76 -69.8 471.13 -42 471.13S-11.99 447.47 16 447.47S46.13 470.86 74 470.86S103.46 448.24 132 448.24S161.71 463.48 190 463.48S220.16 448.96 248 448.96S277 471 306 471S335.84 459.55 364 459.55S394.11 470.44 422 470.44S451.49 457.53 480 457.53S510.15 475.48 538 475.48S567.8 451.82 596 451.82S625.22 472.38 654 472.38S684.39 460.82 712 460.82S741.03 471.07 770 471.07S799.76 467.84 828 467.84S857.3 467.03 886 467.03S916.14 460.02 944 460.02S973.43 474.2 1002 474.2S1031.46 457.22 1060 457.22S1090.45 475.82 1118 475.82S1147.25 454.02 1176 454.02S1205.57 468.32 1234 468.32S1264.15 448.75 1292 448.75S1321.68 463.91 1350 463.91S1379.32 460.85 1408 460.85S1438.37 470.73 1466 470.73S1495.64 449.96 1524 449.96L1466 633 L-100 633 Z" repeatCount="indefinite" dur="12.5s" attributeName="d"></animate>
  <animateTransform keySplines="0.3 0 0.7 1;0.3 0 0.7 1" calcMode="spline" values="0;10;0" repeatCount="indefinite" begin="-6.25s" dur="12.5s" type="translate" attributeName="transform"></animateTransform>
</path><path stroke-width="0" fill="#95a6a7" d="M-100 476.67C-69.18 476.35 -68.66 485.49 -40.23 485.49S-9 469.04 19.54 469.04S49.79 495.62 79.31 495.62S109.5 470.3 139.08 470.3S170.31 486.94 198.85 486.94S229.22 465.3 258.63 465.3S290.05 486.5 318.4 486.5S348.29 468.18 378.17 468.18S408.68 483.54 437.94 483.54S467.93 469.01 497.71 469.01S528.72 484.3 557.48 484.3S587.99 470.05 617.25 470.05S647.56 483.51 677.02 483.51S707.07 477.68 736.79 477.68S767.84 492.37 796.56 492.37S827.21 471.57 856.34 471.57S886.53 484.36 916.11 484.36S946.9 473.17 975.88 473.17S1005.83 483.69 1035.65 483.69S1066.12 472.16 1095.42 472.16S1126.34 485.16 1155.19 485.16S1186.07 475.8 1214.96 475.8S1245.61 484.57 1274.73 484.57S1304.9 473.51 1334.5 473.51S1365.17 485.26 1394.27 485.26S1424.61 462.69 1454.05 462.69S1485.45 477.35 1513.82 477.35L1466 633 L-100 633 Z">
  <animate values="M-100 476.67C-69.18 476.35 -68.66 485.49 -40.23 485.49S-9 469.04 19.54 469.04S49.79 495.62 79.31 495.62S109.5 470.3 139.08 470.3S170.31 486.94 198.85 486.94S229.22 465.3 258.63 465.3S290.05 486.5 318.4 486.5S348.29 468.18 378.17 468.18S408.68 483.54 437.94 483.54S467.93 469.01 497.71 469.01S528.72 484.3 557.48 484.3S587.99 470.05 617.25 470.05S647.56 483.51 677.02 483.51S707.07 477.68 736.79 477.68S767.84 492.37 796.56 492.37S827.21 471.57 856.34 471.57S886.53 484.36 916.11 484.36S946.9 473.17 975.88 473.17S1005.83 483.69 1035.65 483.69S1066.12 472.16 1095.42 472.16S1126.34 485.16 1155.19 485.16S1186.07 475.8 1214.96 475.8S1245.61 484.57 1274.73 484.57S1304.9 473.51 1334.5 473.51S1365.17 485.26 1394.27 485.26S1424.61 462.69 1454.05 462.69S1485.45 477.35 1513.82 477.35L1466 633 L-100 633 Z;M-100 493.35C-68.85 495.94 -70.03 483.05 -40.23 483.05S-9.5 473.67 19.54 473.67S50 489.58 79.31 489.58S110.63 464.25 139.08 464.25S169.01 492.76 198.85 492.76S230.11 463.47 258.63 463.47S289.02 495.32 318.4 495.32S348.74 468.31 378.17 468.31S408.21 488.84 437.94 488.84S468.9 466.94 497.71 466.94S528.02 487.15 557.48 487.15S588.89 475.43 617.25 475.43S647.35 487.78 677.02 487.78S707.19 472.77 736.79 472.77S766.96 469.88 796.56 469.88S826.68 462.96 856.34 462.96S887.79 492.48 916.11 492.48S946.5 473.33 975.88 473.33S1006.61 483.43 1035.65 483.43S1066.1 472.94 1095.42 472.94S1126.17 492.2 1155.19 492.2S1186.34 469.9 1214.96 469.9S1244.86 481.34 1274.73 481.34S1305.28 463.12 1334.5 463.12S1364.6 481.78 1394.27 481.78S1425.44 472.58 1454.05 472.58S1484.89 482.21 1513.82 482.21L1466 633 L-100 633 Z;M-100 476.67C-69.18 476.35 -68.66 485.49 -40.23 485.49S-9 469.04 19.54 469.04S49.79 495.62 79.31 495.62S109.5 470.3 139.08 470.3S170.31 486.94 198.85 486.94S229.22 465.3 258.63 465.3S290.05 486.5 318.4 486.5S348.29 468.18 378.17 468.18S408.68 483.54 437.94 483.54S467.93 469.01 497.71 469.01S528.72 484.3 557.48 484.3S587.99 470.05 617.25 470.05S647.56 483.51 677.02 483.51S707.07 477.68 736.79 477.68S767.84 492.37 796.56 492.37S827.21 471.57 856.34 471.57S886.53 484.36 916.11 484.36S946.9 473.17 975.88 473.17S1005.83 483.69 1035.65 483.69S1066.12 472.16 1095.42 472.16S1126.34 485.16 1155.19 485.16S1186.07 475.8 1214.96 475.8S1245.61 484.57 1274.73 484.57S1304.9 473.51 1334.5 473.51S1365.17 485.26 1394.27 485.26S1424.61 462.69 1454.05 462.69S1485.45 477.35 1513.82 477.35L1466 633 L-100 633 Z" repeatCount="indefinite" dur="10s" attributeName="d"></animate>
  <animateTransform keySplines="0.3 0 0.7 1;0.3 0 0.7 1" calcMode="spline" values="0;10;0" repeatCount="indefinite" begin="-6s" dur="10s" type="translate" attributeName="transform"></animateTransform>
</path><path stroke-width="0" fill="#adbcbc" d="M-100 493.58C-68.3 481.47 -67.62 500.4 -38.35 500.4S-6.59 478.41 23.31 478.41S54.46 507.47 84.96 507.47S116.01 482.52 146.61 482.52S177.58 483.97 208.27 483.97S240.18 482.17 269.92 482.17S302.1 511.64 331.57 511.64S363.29 480.04 393.23 480.04S424.68 512.2 454.88 512.2S485.84 514.43 516.54 514.43S547.74 511.39 578.19 511.39S610.5 492.43 639.84 492.43S670.94 480.29 701.5 480.29S732.71 485.56 763.15 485.56S795.33 508.65 824.8 508.65S856.07 490.95 886.46 490.95S918.8 493.51 948.11 493.51S980.38 483.63 1009.76 483.63S1041.75 488.7 1071.42 488.7S1103.26 478.01 1133.07 478.01S1164.99 502.91 1194.72 502.91S1226.73 490.92 1256.38 490.92S1287.44 512.58 1318.03 512.58S1349.39 490.44 1379.69 490.44S1410.55 500.82 1441.34 500.82S1472.37 484.63 1502.99 484.63L1466 633 L-100 633 Z">
  <animate values="M-100 493.58C-68.3 481.47 -67.62 500.4 -38.35 500.4S-6.59 478.41 23.31 478.41S54.46 507.47 84.96 507.47S116.01 482.52 146.61 482.52S177.58 483.97 208.27 483.97S240.18 482.17 269.92 482.17S302.1 511.64 331.57 511.64S363.29 480.04 393.23 480.04S424.68 512.2 454.88 512.2S485.84 514.43 516.54 514.43S547.74 511.39 578.19 511.39S610.5 492.43 639.84 492.43S670.94 480.29 701.5 480.29S732.71 485.56 763.15 485.56S795.33 508.65 824.8 508.65S856.07 490.95 886.46 490.95S918.8 493.51 948.11 493.51S980.38 483.63 1009.76 483.63S1041.75 488.7 1071.42 488.7S1103.26 478.01 1133.07 478.01S1164.99 502.91 1194.72 502.91S1226.73 490.92 1256.38 490.92S1287.44 512.58 1318.03 512.58S1349.39 490.44 1379.69 490.44S1410.55 500.82 1441.34 500.82S1472.37 484.63 1502.99 484.63L1466 633 L-100 633 Z;M-100 484.2C-67.81 480.99 -68.61 506.73 -38.35 506.73S-6.97 482.36 23.31 482.36S54.82 507.01 84.96 507.01S116.65 484.98 146.61 484.98S177.53 500.33 208.27 500.33S239.66 480.2 269.92 480.2S301.73 506.4 331.57 506.4S363.98 489.92 393.23 489.92S424.97 513.16 454.88 513.16S486.13 508.16 516.54 508.16S547.45 510.55 578.19 510.55S609.26 492.91 639.84 492.91S671.83 514.74 701.5 514.74S733.37 483.82 763.15 483.82S794.82 507.59 824.8 507.59S855.75 490.71 886.46 490.71S917.65 509.88 948.11 509.88S980 491.77 1009.76 491.77S1041.58 503.44 1071.42 503.44S1103.81 481.74 1133.07 481.74S1164.95 514.3 1194.72 514.3S1225.73 488.63 1256.38 488.63S1288.27 515.7 1318.03 515.7S1349.11 481.74 1379.69 481.74S1410.85 503.45 1441.34 503.45S1473.24 491.68 1502.99 491.68L1466 633 L-100 633 Z;M-100 493.58C-68.3 481.47 -67.62 500.4 -38.35 500.4S-6.59 478.41 23.31 478.41S54.46 507.47 84.96 507.47S116.01 482.52 146.61 482.52S177.58 483.97 208.27 483.97S240.18 482.17 269.92 482.17S302.1 511.64 331.57 511.64S363.29 480.04 393.23 480.04S424.68 512.2 454.88 512.2S485.84 514.43 516.54 514.43S547.74 511.39 578.19 511.39S610.5 492.43 639.84 492.43S670.94 480.29 701.5 480.29S732.71 485.56 763.15 485.56S795.33 508.65 824.8 508.65S856.07 490.95 886.46 490.95S918.8 493.51 948.11 493.51S980.38 483.63 1009.76 483.63S1041.75 488.7 1071.42 488.7S1103.26 478.01 1133.07 478.01S1164.99 502.91 1194.72 502.91S1226.73 490.92 1256.38 490.92S1287.44 512.58 1318.03 512.58S1349.39 490.44 1379.69 490.44S1410.55 500.82 1441.34 500.82S1472.37 484.63 1502.99 484.63L1466 633 L-100 633 Z" repeatCount="indefinite" dur="7.5s" attributeName="d"></animate>
  <animateTransform keySplines="0.3 0 0.7 1;0.3 0 0.7 1" calcMode="spline" values="0;10;0" repeatCount="indefinite" begin="-5.25s" dur="7.5s" type="translate" attributeName="transform"></animateTransform>
</path><path stroke-width="0" fill="#c6d2d2" d="M-100 508.24C-67.15 495.62 -66.88 527.13 -36.34 527.13S-3.17 500.51 27.32 500.51S59.41 525.57 90.98 525.57S123.13 521.87 154.63 521.87S187.26 531.49 218.29 531.49S251.14 522.97 281.95 522.97S314.02 520.74 345.61 520.74S378.82 509.29 409.27 509.29S442.27 525.98 472.93 525.98S505.2 502.75 536.59 502.75S569.21 522.93 600.24 522.93S632.92 533.54 663.9 533.54S697.15 506.78 727.56 506.78S760.08 496.12 791.22 496.12S823.2 530.81 854.88 530.81S886.77 508.98 918.54 508.98S951.28 525.8 982.2 525.8S1015.06 528.67 1045.85 528.67S1079.04 527.93 1109.51 527.93S1141.47 496.33 1173.17 496.33S1205.01 528.81 1236.83 528.81S1268.94 507.55 1300.49 507.55S1333.15 528.69 1364.15 528.69S1396.28 506.06 1427.8 506.06S1459.65 522.01 1491.46 522.01L1466 633 L-100 633 Z">
  <animate values="M-100 508.24C-67.15 495.62 -66.88 527.13 -36.34 527.13S-3.17 500.51 27.32 500.51S59.41 525.57 90.98 525.57S123.13 521.87 154.63 521.87S187.26 531.49 218.29 531.49S251.14 522.97 281.95 522.97S314.02 520.74 345.61 520.74S378.82 509.29 409.27 509.29S442.27 525.98 472.93 525.98S505.2 502.75 536.59 502.75S569.21 522.93 600.24 522.93S632.92 533.54 663.9 533.54S697.15 506.78 727.56 506.78S760.08 496.12 791.22 496.12S823.2 530.81 854.88 530.81S886.77 508.98 918.54 508.98S951.28 525.8 982.2 525.8S1015.06 528.67 1045.85 528.67S1079.04 527.93 1109.51 527.93S1141.47 496.33 1173.17 496.33S1205.01 528.81 1236.83 528.81S1268.94 507.55 1300.49 507.55S1333.15 528.69 1364.15 528.69S1396.28 506.06 1427.8 506.06S1459.65 522.01 1491.46 522.01L1466 633 L-100 633 Z;M-100 507.3C-67.79 496.37 -67.82 528.53 -36.34 528.53S-4.48 530.9 27.32 530.9S60 525.4 90.98 525.4S123.67 507.6 154.63 507.6S186.77 534.75 218.29 534.75S250.43 495.65 281.95 495.65S315.33 522.53 345.61 522.53S377.78 498.94 409.27 498.94S441.2 522.3 472.93 522.3S505.35 502.62 536.59 502.62S569.06 532.24 600.24 532.24S633.29 506.49 663.9 506.49S696.15 529.02 727.56 529.02S759.86 501.57 791.22 501.57S824.05 522.5 854.88 522.5S888.02 497.57 918.54 497.57S951.09 529.78 982.2 529.78S1014.94 505.17 1045.85 505.17S1078.47 525.92 1109.51 525.92S1141.88 500.64 1173.17 500.64S1205.37 527.61 1236.83 527.61S1268.69 499.58 1300.49 499.58S1332.83 520.53 1364.15 520.53S1396.15 502.3 1427.8 502.3S1460.15 528.86 1491.46 528.86L1466 633 L-100 633 Z;M-100 508.24C-67.15 495.62 -66.88 527.13 -36.34 527.13S-3.17 500.51 27.32 500.51S59.41 525.57 90.98 525.57S123.13 521.87 154.63 521.87S187.26 531.49 218.29 531.49S251.14 522.97 281.95 522.97S314.02 520.74 345.61 520.74S378.82 509.29 409.27 509.29S442.27 525.98 472.93 525.98S505.2 502.75 536.59 502.75S569.21 522.93 600.24 522.93S632.92 533.54 663.9 533.54S697.15 506.78 727.56 506.78S760.08 496.12 791.22 496.12S823.2 530.81 854.88 530.81S886.77 508.98 918.54 508.98S951.28 525.8 982.2 525.8S1015.06 528.67 1045.85 528.67S1079.04 527.93 1109.51 527.93S1141.47 496.33 1173.17 496.33S1205.01 528.81 1236.83 528.81S1268.94 507.55 1300.49 507.55S1333.15 528.69 1364.15 528.69S1396.28 506.06 1427.8 506.06S1459.65 522.01 1491.46 522.01L1466 633 L-100 633 Z" repeatCount="indefinite" dur="5s" attributeName="d"></animate>
  <animateTransform keySplines="0.3 0 0.7 1;0.3 0 0.7 1" calcMode="spline" values="0;10;0" repeatCount="indefinite" begin="-4s" dur="5s" type="translate" attributeName="transform"></animateTransform>
</path><path stroke-width="0" fill="#dfe8e8" d="M-100 512.96C-66.36 523.71 -66.67 524.07 -34.2 524.07S-1.01 522.07 31.6 522.07S65.23 523.53 97.39 523.53S131.09 541.6 163.19 541.6S197.29 543.07 228.99 543.07S262.05 513.62 294.79 513.62S328.41 546.74 360.59 546.74S394.43 542.54 426.39 542.54S460.06 542.46 492.18 542.46S525.76 518.65 557.98 518.65S591.33 546.67 623.78 546.67S658.02 519.79 689.58 519.79S723.21 541.76 755.38 541.76S789.24 512.95 821.18 512.95S855.44 512.64 886.97 512.64S920.42 542.6 952.77 542.6S986.67 540.88 1018.57 540.88S1051.86 513.07 1084.37 513.07S1117.91 544.93 1150.17 544.93S1184.1 520.95 1215.97 520.95S1250.31 540.17 1281.76 540.17S1316.19 512.53 1347.56 512.53S1380.53 549.32 1413.36 549.32S1447.11 519.89 1479.16 519.89L1466 633 L-100 633 Z">
  <animate values="M-100 512.96C-66.36 523.71 -66.67 524.07 -34.2 524.07S-1.01 522.07 31.6 522.07S65.23 523.53 97.39 523.53S131.09 541.6 163.19 541.6S197.29 543.07 228.99 543.07S262.05 513.62 294.79 513.62S328.41 546.74 360.59 546.74S394.43 542.54 426.39 542.54S460.06 542.46 492.18 542.46S525.76 518.65 557.98 518.65S591.33 546.67 623.78 546.67S658.02 519.79 689.58 519.79S723.21 541.76 755.38 541.76S789.24 512.95 821.18 512.95S855.44 512.64 886.97 512.64S920.42 542.6 952.77 542.6S986.67 540.88 1018.57 540.88S1051.86 513.07 1084.37 513.07S1117.91 544.93 1150.17 544.93S1184.1 520.95 1215.97 520.95S1250.31 540.17 1281.76 540.17S1316.19 512.53 1347.56 512.53S1380.53 549.32 1413.36 549.32S1447.11 519.89 1479.16 519.89L1466 633 L-100 633 Z;M-100 544.96C-66.6 547.14 -66.3 547.84 -34.2 547.84S-0.67 525.25 31.6 525.25S65.96 552.06 97.39 552.06S130.32 520.52 163.19 520.52S197.09 546.55 228.99 546.55S261.98 518.46 294.79 518.46S328.17 552.26 360.59 552.26S394.69 515.42 426.39 515.42S460.8 546.98 492.18 546.98S525.75 513.54 557.98 513.54S591.62 540.31 623.78 540.31S657.35 511.73 689.58 511.73S723.39 541.64 755.38 541.64S788.78 511.86 821.18 511.86S855.63 545.66 886.97 545.66S921.41 512.51 952.77 512.51S986.03 545.9 1018.57 545.9S1052.76 541.95 1084.37 541.95S1118.8 538.78 1150.17 538.78S1184.34 512.33 1215.97 512.33S1249.11 547.28 1281.76 547.28S1315.35 525.02 1347.56 525.02S1380.62 547.43 1413.36 547.43S1446.86 517.36 1479.16 517.36L1466 633 L-100 633 Z;M-100 512.96C-66.36 523.71 -66.67 524.07 -34.2 524.07S-1.01 522.07 31.6 522.07S65.23 523.53 97.39 523.53S131.09 541.6 163.19 541.6S197.29 543.07 228.99 543.07S262.05 513.62 294.79 513.62S328.41 546.74 360.59 546.74S394.43 542.54 426.39 542.54S460.06 542.46 492.18 542.46S525.76 518.65 557.98 518.65S591.33 546.67 623.78 546.67S658.02 519.79 689.58 519.79S723.21 541.76 755.38 541.76S789.24 512.95 821.18 512.95S855.44 512.64 886.97 512.64S920.42 542.6 952.77 542.6S986.67 540.88 1018.57 540.88S1051.86 513.07 1084.37 513.07S1117.91 544.93 1150.17 544.93S1184.1 520.95 1215.97 520.95S1250.31 540.17 1281.76 540.17S1316.19 512.53 1347.56 512.53S1380.53 549.32 1413.36 549.32S1447.11 519.89 1479.16 519.89L1466 633 L-100 633 Z" repeatCount="indefinite" dur="2.5s" attributeName="d"></animate>
  <animateTransform keySplines="0.3 0 0.7 1;0.3 0 0.7 1" calcMode="spline" values="0;10;0" repeatCount="indefinite" begin="-2.25s" dur="2.5s" type="translate" attributeName="transform"></animateTransform>
</path><g></g></g><!-- [ldio] generated by https://loading.io --></svg>